<?xml version="1.0" encoding="utf-8"?>
<!-- Generator: Adobe Illustrator 27.5.0, SVG Export Plug-In . SVG Version: 6.00 Build 0)  -->
<svg version="1.1" xmlns="http://www.w3.org/2000/svg" xmlns:xlink="http://www.w3.org/1999/xlink" x="0px" y="0px"
	 viewBox="0 0 750 500" style="enable-background:new 0 0 750 500;" xml:space="preserve">
<g id="BACKGROUND">
	<rect style="fill:#FFFFFF;" width="750" height="500"/>
</g>
<g id="OBJECTS">
	<g>
		<rect x="500" style="fill:#5AC8F9;" width="62.312" height="125"/>
		<rect x="499.624" y="250" style="fill:#FFDA3E;" width="125.376" height="125.376"/>
		<path style="fill:#5AC8F9;" d="M0,125L0,125L0,0h125v0C125,69.036,69.036,125,0,125z"/>
		<path style="fill:#3F2493;" d="M187.5,125L187.5,125c-34.518,0-62.5-27.982-62.5-62.5V0h62.5C222.018,0,250,27.982,250,62.5v0
			C250,97.018,222.018,125,187.5,125z"/>
		<path style="fill:#FFDA3E;" d="M500,125H375v0C375,55.964,430.964,0,500,0h0V125z"/>
		<rect x="625" style="fill:#5AC8F9;" width="125" height="125"/>
		<rect y="125" style="fill:#FFDA3E;" width="125" height="125"/>
		<path style="fill:#FFDA3E;" d="M250,250H125V125h0C194.036,125,250,180.964,250,250L250,250z"/>
		<path style="fill:#5AC8F9;" d="M375,250H250v0c0-69.035,55.964-125,125-125h0V250z"/>
		<path style="fill:#3F2493;" d="M375,250L375,250l0-125h125v0C500,194.036,444.036,250,375,250z"/>
		<path style="fill:#A57AEA;" d="M625,250L625,250c-69.036,0-125-55.964-125-125v0h125V250z"/>
		<path style="fill:#FFDA3E;" d="M687.5,250H625V125h62.5c34.518,0,62.5,27.982,62.5,62.5v0C750,222.018,722.018,250,687.5,250z"/>
		<path style="fill:#A57AEA;" d="M125,375H0v0c0-69.036,55.964-125,125-125h0V375z"/>
		<rect x="125" y="250" style="fill:#5AC8F9;" width="125" height="125"/>
		<rect x="250" y="250" style="fill:#A57AEA;" width="125" height="62.5"/>
		<path style="fill:#3F2493;" d="M112.944,243.789c-12.169-6.269-22.078-16.178-28.347-28.347l-6.211-12.056l-6.211,12.056
			c-6.269,12.169-16.178,22.078-28.347,28.347L31.772,250l12.056,6.211c12.169,6.269,22.078,16.178,28.347,28.347l6.211,12.056
			l6.211-12.056c6.269-12.169,16.178-22.078,28.347-28.347L125,250L112.944,243.789z"/>
		<path style="fill:#3F2493;" d="M659.558,118.789c-12.169-6.269-22.078-16.178-28.347-28.347L625,78.386l-6.211,12.056
			c-6.269,12.169-16.178,22.078-28.347,28.347L578.386,125l12.056,6.211c12.169,6.269,22.078,16.178,28.347,28.347L625,171.614
			l6.211-12.056c6.269-12.169,16.178-22.078,28.347-28.347L671.614,125L659.558,118.789z"/>
		<path style="fill:#FFFFFF;" d="M206.172,243.789c-12.169-6.269-22.078-16.178-28.347-28.347l-6.211-12.056l-6.211,12.056
			c-6.269,12.169-16.178,22.078-28.347,28.347L125,250l12.056,6.211c12.169,6.269,22.078,16.178,28.347,28.347l6.211,12.056
			l6.211-12.056c6.269-12.169,16.178-22.078,28.347-28.347L218.228,250L206.172,243.789z"/>
		<path style="fill:#3F2493;" d="M500,375H375V250h0C444.036,250,500,305.964,500,375L500,375z"/>
		<path style="fill:#5AC8F9;" d="M750,375L750,375c-69.036,0-125-55.964-125-125v0h125V375z"/>
		<rect x="375" y="375" style="fill:#A57AEA;" width="125" height="125"/>
		<g>
			<path style="fill:#5AC8F9;" d="M625,500L625,500c-34.518,0-62.5-27.982-62.5-62.5V375l0,0c34.518,0,62.5,27.982,62.5,62.5V500z"
				/>
			<path style="fill:#5AC8F9;" d="M562.5,500L562.5,500c-34.518,0-62.5-27.982-62.5-62.5V375l0,0c34.518,0,62.5,27.982,62.5,62.5
				V500z"/>
		</g>
		<g>
			<path style="fill:#A57AEA;" d="M375,125L375,125c-34.518,0-62.5-27.982-62.5-62.5V0l0,0C347.018,0,375,27.982,375,62.5V125z"/>
			<path style="fill:#A57AEA;" d="M312.5,125L312.5,125c-34.518,0-62.5-27.982-62.5-62.5V0l0,0c34.518,0,62.5,27.982,62.5,62.5V125z
				"/>
		</g>
		<g>
			<path style="fill:#FFDA3E;" d="M250,500L250,500c-34.518,0-62.5-27.982-62.5-62.5V375l0,0c34.518,0,62.5,27.982,62.5,62.5V500z"
				/>
			<path style="fill:#FFDA3E;" d="M187.5,500L187.5,500c-34.518,0-62.5-27.982-62.5-62.5V375l0,0c34.518,0,62.5,27.982,62.5,62.5
				V500z"/>
		</g>
		<path style="fill:#A57AEA;" d="M750,500H625V375h0C694.036,375,750,430.964,750,500L750,500z"/>
		<path style="fill:#FFFFFF;" d="M597.058,306.477c-12.169-6.269-22.078-16.178-28.347-28.347l-6.211-12.056l-6.211,12.056
			c-6.269,12.169-16.178,22.078-28.347,28.347l-12.056,6.211l12.056,6.211c12.169,6.269,22.078,16.178,28.347,28.347l6.211,12.056
			l6.211-12.056c6.269-12.169,16.178-22.078,28.347-28.347l12.056-6.211L597.058,306.477z"/>
		<g>
			<path style="fill:#FFFFFF;" d="M276.346,269.862c0,2.332-1.89,4.222-4.222,4.222c-2.332,0-4.222-1.89-4.222-4.222
				s1.89-4.222,4.222-4.222C274.456,265.64,276.346,267.53,276.346,269.862z"/>
			<circle style="fill:#FFFFFF;" cx="297.982" cy="269.862" r="4.222"/>
			<circle style="fill:#FFFFFF;" cx="323.841" cy="269.862" r="4.222"/>
			<circle style="fill:#FFFFFF;" cx="349.699" cy="269.862" r="4.222"/>
		</g>
		<g>
			<path style="fill:#FFFFFF;" d="M402.68,476.066c0,2.332-1.89,4.222-4.222,4.222c-2.332,0-4.222-1.89-4.222-4.222
				c0-2.332,1.89-4.222,4.222-4.222C400.79,471.844,402.68,473.734,402.68,476.066z"/>
			<path style="fill:#FFFFFF;" d="M428.539,476.066c0,2.332-1.89,4.222-4.222,4.222c-2.332,0-4.222-1.89-4.222-4.222
				c0-2.332,1.89-4.222,4.222-4.222C426.648,471.844,428.539,473.734,428.539,476.066z"/>
			<path style="fill:#FFFFFF;" d="M454.397,476.066c0,2.332-1.89,4.222-4.222,4.222c-2.332,0-4.222-1.89-4.222-4.222
				c0-2.332,1.89-4.222,4.222-4.222C452.507,471.844,454.397,473.734,454.397,476.066z"/>
			<path style="fill:#FFFFFF;" d="M480.256,476.066c0,2.332-1.89,4.222-4.222,4.222s-4.222-1.89-4.222-4.222
				c0-2.332,1.89-4.222,4.222-4.222S480.256,473.734,480.256,476.066z"/>
		</g>
		<g>
			<circle style="fill:#3F2493;" cx="22.191" cy="149.988" r="4.222"/>
			<circle style="fill:#3F2493;" cx="48.05" cy="149.988" r="4.222"/>
			<circle style="fill:#3F2493;" cx="73.908" cy="149.988" r="4.222"/>
			<path style="fill:#3F2493;" d="M103.988,149.988c0,2.332-1.89,4.222-4.222,4.222c-2.332,0-4.222-1.89-4.222-4.222
				c0-2.332,1.89-4.222,4.222-4.222C102.098,145.766,103.988,147.656,103.988,149.988z"/>
		</g>
		<rect x="687.688" style="fill:#FFDA3E;" width="62.312" height="125"/>
		<g>
			<path style="fill:#3F2493;" d="M519.536,26.156c-2.332,0-4.222-1.89-4.222-4.222c0-2.332,1.89-4.222,4.222-4.222
				s4.222,1.89,4.222,4.222C523.757,24.266,521.867,26.156,519.536,26.156z"/>
			<circle style="fill:#3F2493;" cx="519.536" cy="47.793" r="4.222"/>
			<circle style="fill:#3F2493;" cx="519.536" cy="73.651" r="4.222"/>
			<circle style="fill:#3F2493;" cx="519.536" cy="99.509" r="4.222"/>
		</g>
		<g>
			<path style="fill:#3F2493;" d="M727.937,26.156c-2.332,0-4.222-1.89-4.222-4.222c0-2.332,1.89-4.222,4.222-4.222
				c2.332,0,4.222,1.89,4.222,4.222C732.159,24.266,730.269,26.156,727.937,26.156z"/>
			<path style="fill:#3F2493;" d="M727.937,52.014c-2.332,0-4.222-1.89-4.222-4.222c0-2.332,1.89-4.222,4.222-4.222
				c2.332,0,4.222,1.89,4.222,4.222C732.159,50.124,730.269,52.014,727.937,52.014z"/>
			<path style="fill:#3F2493;" d="M727.937,77.873c-2.332,0-4.222-1.89-4.222-4.222c0-2.332,1.89-4.222,4.222-4.222
				c2.332,0,4.222,1.89,4.222,4.222C732.159,75.983,730.269,77.873,727.937,77.873z"/>
			<path style="fill:#3F2493;" d="M727.937,103.731c-2.332,0-4.222-1.89-4.222-4.222c0-2.332,1.89-4.222,4.222-4.222
				c2.332,0,4.222,1.89,4.222,4.222C732.159,101.841,730.269,103.731,727.937,103.731z"/>
		</g>
		<g>
			<path style="fill:#3F2493;" d="M648.966,405.934c-2.332,0-4.222-1.89-4.222-4.222c0-2.332,1.89-4.222,4.222-4.222
				c2.332,0,4.222,1.89,4.222,4.222C653.188,404.044,651.298,405.934,648.966,405.934z"/>
			<path style="fill:#3F2493;" d="M648.966,431.793c-2.332,0-4.222-1.89-4.222-4.222s1.89-4.222,4.222-4.222
				c2.332,0,4.222,1.89,4.222,4.222S651.298,431.793,648.966,431.793z"/>
			<path style="fill:#3F2493;" d="M648.966,457.651c-2.332,0-4.222-1.89-4.222-4.222s1.89-4.222,4.222-4.222
				c2.332,0,4.222,1.89,4.222,4.222S651.298,457.651,648.966,457.651z"/>
			<path style="fill:#3F2493;" d="M648.966,483.509c-2.332,0-4.222-1.89-4.222-4.222c0-2.332,1.89-4.222,4.222-4.222
				c2.332,0,4.222,1.89,4.222,4.222C653.188,481.619,651.298,483.509,648.966,483.509z"/>
		</g>
		<rect y="437.5" style="fill:#5AC8F9;" width="125" height="62.5"/>
		<circle style="fill:#FFFFFF;" cx="687.5" cy="187.5" r="25.4"/>
		<circle style="fill:#FFFFFF;" cx="187.5" cy="62.5" r="25.4"/>
		<path style="fill:#3F2493;" d="M86.463,86.206L86.463,86.206c-47.093,0-85.27-38.176-85.27-85.27v0h0
			C48.286,0.936,86.463,39.112,86.463,86.206L86.463,86.206z"/>
		<path style="fill:#3F2493;" d="M0,500L0,500c0-47.093,38.176-85.27,85.27-85.27h0v0C85.27,461.823,47.093,500,0,500L0,500z"/>
		<path style="fill:#5AC8F9;" d="M499.624,250L499.624,250c0-47.093,38.177-85.27,85.27-85.27l0,0v0
			C584.894,211.824,546.717,250,499.624,250L499.624,250z"/>
		<g>
			<path style="fill:#3F2493;" d="M331.26,227.249L331.26,227.249c-47.093,0-85.27-38.176-85.27-85.27v0h0
				C293.084,141.979,331.26,180.156,331.26,227.249L331.26,227.249z"/>
			<path style="fill:#FFFFFF;" d="M331.26,227.249L331.26,227.249c0-47.093,38.176-85.27,85.27-85.27h0v0
				C416.53,189.072,378.353,227.249,331.26,227.249L331.26,227.249z"/>
		</g>
		<g>
			<path style="fill:#FFDA3E;" d="M654.99,371.021L654.99,371.021c0-47.093,38.177-85.27,85.27-85.27h0v0
				C740.259,332.844,702.083,371.021,654.99,371.021L654.99,371.021z"/>
			<path style="fill:#FFDA3E;" d="M654.99,368.159L654.99,368.159c47.093,0,85.27,38.177,85.27,85.27v0h0
				C693.166,453.429,654.99,415.253,654.99,368.159L654.99,368.159z"/>
		</g>
		<path style="fill:#FFDA3E;" d="M273.328,385.479L273.328,385.479c-47.093,0-85.27-38.176-85.27-85.27l0,0h0
			C235.151,300.209,273.328,338.386,273.328,385.479L273.328,385.479z"/>
		<path style="fill:#5AC8F9;" d="M250,437.5L250,437.5c0-34.518,27.982-62.5,62.5-62.5H375v62.5c0,34.518-27.982,62.5-62.5,62.5h0
			C277.982,500,250,472.018,250,437.5z"/>
		<path style="fill:#FFDA3E;" d="M409.558,368.789c-12.169-6.269-22.078-16.178-28.347-28.347L375,328.386l-6.211,12.056
			c-6.269,12.169-16.178,22.078-28.347,28.347L328.386,375l12.056,6.211c12.169,6.269,22.078,16.178,28.347,28.347L375,421.614
			l6.211-12.056c6.269-12.169,16.178-22.078,28.347-28.347L421.614,375L409.558,368.789z"/>
		<circle style="fill:#FFFFFF;" cx="312.106" cy="437.5" r="25.4"/>
		<g>
			<circle style="fill:#5AC8F9;" cx="22.191" cy="396.491" r="4.222"/>
			<circle style="fill:#5AC8F9;" cx="48.05" cy="396.491" r="4.222"/>
			<circle style="fill:#5AC8F9;" cx="73.908" cy="396.491" r="4.222"/>
			<path style="fill:#5AC8F9;" d="M103.988,396.491c0,2.332-1.89,4.222-4.222,4.222c-2.332,0-4.222-1.89-4.222-4.222
				c0-2.332,1.89-4.222,4.222-4.222C102.098,392.269,103.988,394.159,103.988,396.491z"/>
		</g>
	</g>
</g>
</svg>
